<?xml version="1.0" encoding="utf-8"?>
<!-- Generator: Adobe Illustrator 16.0.0, SVG Export Plug-In . SVG Version: 6.00 Build 0)  -->
<!DOCTYPE svg PUBLIC "-//W3C//DTD SVG 1.1//EN" "http://www.w3.org/Graphics/SVG/1.1/DTD/svg11.dtd">
<svg version="1.1" id="Layer_1" xmlns="http://www.w3.org/2000/svg" xmlns:xlink="http://www.w3.org/1999/xlink" x="0px" y="0px"
	 width="240px" height="240px" viewBox="0 0 240 240" enable-background="new 0 0 240 240" xml:space="preserve">
<g id="_x23_ffffffff">
	<path fill="#FFFFFF" d="M15.102,9.404c-0.125-4.999,4.346-9.534,9.36-9.36c63.286-0.039,126.571,0,189.856-0.024
		c3.479-0.228,7.038,1.472,8.825,4.511c1.574,2.393,1.369,5.36,1.361,8.101c-0.022,19.161,0,38.33-0.008,57.491
		c0.031,6.652-0.134,13.312,0.165,19.964c-22.837,15.493-45.975,30.552-68.937,45.872c-7.778,5.102-15.446,10.359-23.304,15.336
		c-0.086-14.359-0.022-28.727,0.144-43.086c7.391-0.393,14.807,0.511,22.176-0.362c0.968-8.431,2.322-16.823,3.117-25.278
		c-8.423-0.52-16.87,0.205-25.293-0.212c-0.363-6.164-0.151-12.359-0.009-18.532c0.056-3.983,2.322-8.203,6.415-9.226
		c6.542-1.708,13.376-0.292,20.036-0.944c0.008-7.763,0.441-15.54-0.182-23.287c-6.691-0.637-13.414-0.779-20.121-0.842
		c-8.062,0.047-16.469,2.251-22.491,7.849c-5.967,5.243-9.061,13.084-9.809,20.862c-0.906,7.999,0.228,16.043-0.433,24.05
		c-7.408,0.574-14.832-0.3-22.231,0.314c-0.197,8.463-0.182,16.934-0.008,25.396c7.408,0.606,14.847-0.236,22.255,0.307
		c0.032,14.139,0.488,28.277,0.008,42.416c-30.435-20.09-60.806-40.267-91.082-60.593c0.33-6.668,0.141-13.351,0.18-20.02
		C15.102,49.868,15.079,29.636,15.102,9.404z"/>
</g>
<g id="_x23_3b5998ff">
	<path fill="#3C5A99" d="M116.214,37.374c6.022-5.597,14.43-7.801,22.491-7.849c6.707,0.063,13.43,0.205,20.121,0.842
		c0.623,7.747,0.189,15.524,0.182,23.287c-6.66,0.653-13.494-0.764-20.036,0.944c-4.093,1.023-6.359,5.243-6.415,9.226
		c-0.143,6.172-0.354,12.368,0.009,18.532c8.423,0.417,16.87-0.307,25.293,0.212c-0.795,8.455-2.149,16.847-3.117,25.278
		c-7.369,0.874-14.785-0.031-22.176,0.362c-0.166,14.359-0.229,28.727-0.144,43.086c-3.51,2.188-6.628,4.959-10.208,7.021
		c-1.701,1.133-3.772,0.486-5.575,0.047c-3.472-2.653-7.015-5.212-10.643-7.644c0.48-14.139,0.023-28.277-0.008-42.416
		c-7.408-0.543-14.847,0.299-22.255-0.307c-0.173-8.463-0.189-16.934,0.008-25.396c7.399-0.614,14.823,0.26,22.231-0.314
		c0.661-8.007-0.473-16.052,0.433-24.05C107.153,50.458,110.247,42.617,116.214,37.374z"/>
</g>
<g id="_x23_627aaeff">
	<path fill="#637BAF" d="M2.775,78.215c4.148-2.645,8.171-5.471,12.319-8.108c-0.039,6.668,0.149,13.352-0.18,20.02
		c-5.07-2.929-9.778-6.408-14.848-9.337C0.492,79.522,1.751,78.924,2.775,78.215z"/>
	<path fill="#637BAF" d="M224.497,70.123c4.857,3.259,9.881,6.298,14.564,9.809c-4.221,4.148-9.574,6.81-14.399,10.155
		C224.363,83.435,224.528,76.775,224.497,70.123z"/>
</g>
<g id="_x23_4969adff">
	<path fill="#4B6AAD" d="M239.062,79.932l0.425-0.386c-0.087,46.981-0.017,93.956-0.039,140.938
		c0.086,5.802-2.732,11.518-7.362,15.013c-4.227-3.708-9.091-6.533-13.728-9.683c-21.248-14.179-42.512-28.341-63.766-42.52
		c-12.493-8.55-25.381-16.515-37.953-24.931c1.802,0.439,3.874,1.086,5.575-0.047c3.58-2.062,6.698-4.834,10.208-7.021
		c7.857-4.977,15.525-10.234,23.304-15.336c22.962-15.32,46.1-30.379,68.937-45.872C229.487,86.741,234.841,84.08,239.062,79.932z"
		/>
</g>
<g id="_x23_4b6bafff">
	<path fill="#4C6CAF" d="M0.066,80.79c5.07,2.929,9.777,6.408,14.848,9.337c30.276,20.326,60.647,40.503,91.082,60.593
		c3.628,2.432,7.171,4.99,10.643,7.644c12.572,8.416,25.459,16.381,37.953,24.931c21.254,14.179,42.518,28.341,63.766,42.52
		c4.637,3.149,9.501,5.975,13.728,9.683c-3.282,2.51-7.353,3.881-11.484,3.842c-67.205,0.008-134.403,0.008-201.602,0
		c-9.801,0.315-18.751-8.219-18.831-18.027C0.051,174.47,0.248,127.63,0.066,80.79z"/>
</g>
<g>
</g>
<g>
</g>
<g>
</g>
<g>
</g>
<g>
</g>
<g>
</g>
</svg>
